<svg xmlns="http://www.w3.org/2000/svg" xmlns:xlink="http://www.w3.org/1999/xlink"><symbol id="icon-arrow" viewBox="0 0 5 10"><g fill="none">
<path d="M0.476196 8.80957L4.28572 5.00005L0.476196 1.19052" stroke="white" stroke-linejoin="round"/>
</g></symbol><symbol id="icon-cheked" viewBox="0 0 9 6"><g fill="none">
<path d="M0.988525 2.33333L3.7778 5L7.96171 1" stroke="white"/>
</g></symbol><symbol id="icon-close" viewBox="0 0 20 20"><g fill="none"><path d="M.293 18.291a1 1 0 101.414 1.414L10 11.413l8.292 8.292a1 1 0 101.414-1.414l-8.292-8.292 8.292-8.292A1 1 0 1018.291.293L9.999 8.585 1.707.293A1 1 0 10.293 1.707L8.585 10 .293 18.291z"/></g></symbol><symbol id="icon-detective" viewBox="0 0 35 35"><g fill="none">
<path d="M17.5 11.0172C17.1227 11.0172 16.8164 11.3751 16.8164 11.8166C16.8164 12.2579 17.1227 12.6161 17.5 12.6161C17.8773 12.6161 18.1836 12.2579 18.1836 11.8166C18.1836 11.3751 17.8773 11.0172 17.5 11.0172Z" fill="#00B2FF"/>
<path d="M32.9492 15.8139H30.2893C28.8872 11.1316 26.8527 2.92165 23.1672 0.598015C21.3239 -0.562708 19.5815 0.247956 18.9262 1.89489C18.6474 2.59501 18.0907 2.96318 17.5 2.96318C16.9013 2.96318 16.3491 2.58689 16.0738 1.89551C15.4417 0.30479 13.741 -0.580195 11.9624 0.429387C8.21781 2.55597 6.12377 11.0964 4.71066 15.8139H2.05078C0.917778 15.8139 0 16.8869 0 18.2121C0 19.5343 0.919914 20.6104 2.05078 20.6104H32.9492C34.0822 20.6104 35 19.5371 35 18.2121C35 16.8897 34.0801 15.8139 32.9492 15.8139ZM7.11205 12.6162H14.7656C15.1432 12.6162 15.4492 12.258 15.4492 11.8168C15.4492 11.3752 15.1432 11.0174 14.7656 11.0174H7.59003C9.65069 4.3606 11.5757 2.42638 12.5594 1.86772C13.6326 1.25879 14.516 1.76842 14.8343 2.56971C15.3357 3.82943 16.3731 4.56202 17.5 4.56202C18.6295 4.56202 19.6656 3.82662 20.1657 2.56971C20.4934 1.74562 21.3813 1.28939 22.5185 2.00543C23.5068 2.62873 25.4259 4.62729 27.4097 11.0174H20.2344C19.8568 11.0174 19.5508 11.3752 19.5508 11.8168C19.5508 12.2583 19.8568 12.6162 20.2344 12.6162H27.8882C28.2338 13.7816 28.5926 14.9842 28.841 15.8139H6.15929C6.40682 14.9864 6.76491 13.7866 7.11205 12.6162ZM32.9492 19.0116H2.05078C1.67374 19.0116 1.36719 18.6528 1.36719 18.2121C1.36719 17.7706 1.6732 17.4127 2.05078 17.4127H32.9492C33.3263 17.4127 33.6328 17.7712 33.6328 18.2121C33.6328 18.6534 33.3265 19.0116 32.9492 19.0116Z" fill="#00B2FF"/>
<path d="M16.1328 23.8081H5.19532C4.81774 23.8081 4.51173 24.1659 4.51173 24.6075V27.8052C4.51173 31.7723 7.27174 35 10.6641 35C13.2345 35 15.5096 33.151 16.4145 30.3655C17.1019 29.9989 17.8981 29.9989 18.5855 30.3655C19.4904 33.151 21.7655 34.9996 24.3359 34.9996C27.7283 34.9996 30.4883 31.7723 30.4883 27.8048V24.6072C30.4883 24.1656 30.1823 23.8077 29.8047 23.8077H18.8672C18.4896 23.8077 18.1836 24.1656 18.1836 24.6072V25.4066H16.8164V24.6072C16.8164 24.1659 16.5104 23.8081 16.1328 23.8081ZM10.6641 33.4011C8.02556 33.4011 5.87891 30.8907 5.87891 27.8052V25.4069H15.4492V27.8052C15.4492 30.8989 13.3141 33.4011 10.6641 33.4011ZM19.5508 25.4069H29.1211V27.8052C29.1211 30.8907 26.9745 33.4011 24.3359 33.4011C21.6793 33.4011 19.5508 30.8914 19.5508 27.8052V25.4069ZM18.1836 27.0057V27.8052C18.1836 28.0606 18.1961 28.3151 18.2188 28.5677C17.7438 28.4662 17.2562 28.4662 16.7812 28.5677C16.8039 28.3151 16.8164 28.0606 16.8164 27.8052V27.0057H18.1836Z" fill="#00B2FF"/>
<path d="M10.6641 30.2033C9.53321 30.2033 8.6133 29.1272 8.6133 27.805C8.6133 27.3635 8.30728 27.0056 7.9297 27.0056C7.55212 27.0056 7.24611 27.3635 7.24611 27.805C7.24611 30.0088 8.77939 31.8021 10.6641 31.8021C11.0417 31.8021 11.3477 31.444 11.3477 31.0027C11.3477 30.5612 11.0417 30.2033 10.6641 30.2033Z" fill="#00B2FF"/>
<path d="M24.336 31.8021C26.2206 31.8021 27.7539 30.0088 27.7539 27.805C27.7539 27.3635 27.4479 27.0056 27.0703 27.0056C26.6927 27.0056 26.3867 27.3635 26.3867 27.805C26.3867 29.1272 25.4668 30.2033 24.336 30.2033C23.9584 30.2033 23.6524 30.5612 23.6524 31.0027C23.6524 31.444 23.9584 31.8021 24.336 31.8021Z" fill="#00B2FF"/>
</g></symbol><symbol id="icon-email" viewBox="0 0 21 20"><g fill="currentColor">
<path d="M18.0584 0H2.94568C1.59663 0 0.5 1.441 0.5 3.2137V16.7863C0.5 18.559 1.59663 20 2.94568 20H18.0543C19.4034 20 20.5 18.559 20.5 16.7863V3.21914C20.5041 1.44644 19.4075 0 18.0584 0ZM19.3868 16.7863C19.3868 17.7488 18.7909 18.5318 18.0584 18.5318H2.94568C2.21322 18.5318 1.61732 17.7488 1.61732 16.7863V3.21914C1.61732 2.25666 2.21322 1.47363 2.94568 1.47363H18.0543C18.7868 1.47363 19.3827 2.25666 19.3827 3.21914V16.7863H19.3868Z"/>
<path d="M13.1133 9.83144L18.0047 4.06744C18.2323 3.79555 18.253 3.33334 18.0461 3.02883C17.8392 2.72975 17.4874 2.70256 17.2557 2.97445L10.5104 10.9299L9.19446 9.38554C9.19032 9.38011 9.18618 9.37467 9.18618 9.36923C9.15721 9.33117 9.12824 9.29854 9.09514 9.26591L3.74029 2.96901C3.50855 2.69713 3.1568 2.72431 2.94989 3.02883C2.74298 3.33334 2.76367 3.79555 2.99541 4.06744L7.94471 9.88038L3.0161 15.9435C2.79264 16.2208 2.78022 16.683 2.99127 16.9821C3.103 17.1343 3.25198 17.2159 3.40096 17.2159C3.53752 17.2159 3.67408 17.1506 3.78167 17.0201L8.78477 10.87L10.1421 12.4633C10.2497 12.5884 10.3821 12.6482 10.5145 12.6482C10.647 12.6482 10.7835 12.5829 10.887 12.4579L12.2816 10.8157L17.2557 17.0256C17.3633 17.1615 17.504 17.2268 17.6405 17.2268C17.7895 17.2268 17.9344 17.1506 18.0461 16.9984C18.2571 16.7047 18.2489 16.2371 18.0254 15.9598L13.1133 9.83144Z"/>
</g></symbol><symbol id="icon-hired" viewBox="0 0 35 35"><g fill="none">
<path d="M31.2638 27.8931C31.639 27.3746 31.8609 26.7384 31.8609 26.0511V21.9434C31.8609 21.5658 31.5548 21.2598 31.1773 21.2598H28.1222C26.7099 21.2598 25.5609 22.4087 25.5609 23.8211V26.0511C25.5609 26.738 25.7826 27.3738 26.1573 27.8921C25.69 27.9679 25.2404 28.1176 24.8211 28.3367C23.8713 26.9195 22.3152 25.9421 20.5271 25.7772C20.5201 25.7752 20.513 25.7738 20.506 25.7721C21.1457 25.0577 21.5357 24.1151 21.5357 23.0829V17.5C21.5357 17.1225 21.2296 16.8164 20.8521 16.8164H16.6999C14.9157 16.8164 13.4643 18.2679 13.4643 20.052V23.0828C13.4643 24.1151 13.8543 25.0576 14.494 25.772C14.487 25.7737 14.4799 25.7752 14.4729 25.7772C12.6846 25.942 11.1284 26.9196 10.1787 28.337C9.75926 28.1179 9.30959 27.9681 8.84249 27.8923C9.21724 27.374 9.43906 26.7381 9.43906 26.0511V21.9434C9.43906 21.5658 9.13295 21.2598 8.75547 21.2598H5.70035C4.28805 21.2598 3.13906 22.4087 3.13906 23.8211V26.0511C3.13906 26.7385 3.36103 27.3746 3.73618 27.8931C1.62025 28.2389 0 30.0791 0 32.2913V34.3164C0 34.694 0.306113 35 0.683594 35H34.3164C34.6939 35 35 34.694 35 34.3164V32.2913C35 30.0791 33.3797 28.2389 31.2638 27.8931ZM4.50625 23.8211C4.50625 23.1626 5.04191 22.627 5.70035 22.627H8.07188V23.4595C8.07188 23.8677 7.73979 24.1998 7.33161 24.1998H4.50625V23.8211ZM4.50625 25.567H7.33161C7.59206 25.567 7.84144 25.5192 8.07188 25.4324V26.0511C8.07188 27.0341 7.27214 27.8339 6.28906 27.8339C5.30599 27.8339 4.50625 27.0341 4.50625 26.0511V25.567ZM6.72978 29.2011L6.28906 29.6418L5.84835 29.2011H6.72978ZM9.19789 31.564V33.6328H1.36719V32.2913C1.36719 30.758 2.48985 29.4826 3.95616 29.2424L5.80569 31.0919C5.93394 31.2201 6.10777 31.2921 6.28906 31.2921C6.47035 31.2921 6.64419 31.2201 6.77243 31.0919L8.62251 29.2417C8.94927 29.2949 9.26352 29.4003 9.55637 29.5544C9.32477 30.1809 9.19789 30.8579 9.19789 31.564ZM17.5001 25.7515C16.0286 25.7515 14.8315 24.5543 14.8315 23.0829V22.1794H18.917C19.37 22.1794 19.7965 22.0637 20.1686 21.8604V23.0829C20.1686 24.5543 18.9715 25.7515 17.5001 25.7515ZM18.6916 27.1186L17.5 28.3102L16.3084 27.1186H18.6916ZM14.8314 20.052H14.8315C14.8315 19.0217 15.6696 18.1836 16.6999 18.1836H20.1685V19.5606C20.1685 20.2508 19.607 20.8123 18.9169 20.8123H14.8314V20.052ZM24.4349 33.6328H23.1055H11.8945H10.5651V32.2656H15.0163C15.3938 32.2656 15.6999 31.9596 15.6999 31.582C15.6999 31.2045 15.3938 30.8984 15.0163 30.8984H10.6151C10.9081 28.9556 12.4633 27.422 14.4158 27.1595L17.0166 29.7603C17.1501 29.8938 17.3251 29.9605 17.5 29.9605C17.6749 29.9605 17.8499 29.8938 17.9834 29.7603L20.5842 27.1595C22.755 27.4513 24.4349 29.3145 24.4349 31.564V33.6328ZM26.9281 23.8211C26.9281 23.1626 27.4638 22.627 28.1222 22.627H30.4937V23.4595C30.4937 23.8677 30.1617 24.1998 29.7535 24.1998H26.9281V23.8211ZM26.9281 25.567H29.7535C30.0139 25.567 30.2633 25.5192 30.4937 25.4324V26.0511C30.4937 27.0341 29.694 27.8339 28.7109 27.8339C27.7279 27.8339 26.9281 27.0341 26.9281 26.0511V25.567ZM29.1516 29.2011L28.7109 29.6418L28.2702 29.2011H29.1516ZM25.802 33.6328V31.564C25.802 30.8578 25.6752 30.1809 25.4435 29.5542C25.7362 29.4 26.0504 29.2947 26.3772 29.2416L28.2275 31.0919C28.3557 31.2201 28.5296 31.2921 28.7109 31.2921C28.8922 31.2921 29.066 31.2201 29.1942 31.0919L31.0438 29.2424C32.5101 29.4826 33.6327 30.758 33.6327 32.2913V33.6328H25.802Z" fill="#00B2FF"/>
<path d="M20.869 4.4665C20.602 4.19956 20.1693 4.19956 19.9022 4.4665L16.5478 7.82097L15.0977 6.37086C14.8307 6.10385 14.398 6.10385 14.131 6.37079C13.8641 6.63773 13.8641 7.07059 14.131 7.3376L16.0645 9.27107C16.1927 9.39925 16.3665 9.4713 16.5478 9.4713C16.7291 9.4713 16.903 9.39925 17.0312 9.27107L20.869 5.43324C21.136 5.1663 21.136 4.73345 20.869 4.4665Z" fill="#00B2FF"/>
<path d="M20.295 0.592814C19.9503 0.439074 19.5461 0.593908 19.3923 0.938712C19.2385 1.28352 19.3934 1.68773 19.7382 1.84147C21.7205 2.72556 23.0015 4.69889 23.0015 6.86875C23.0015 9.90227 20.5335 12.3702 17.5 12.3702C14.4664 12.3702 11.9985 9.90227 11.9985 6.86875C11.9985 4.7101 13.2702 2.74087 15.2382 1.85199C15.5823 1.69661 15.7353 1.29165 15.5798 0.947599C15.4244 0.603478 15.0193 0.450558 14.6755 0.605939C12.2188 1.71555 10.6313 4.17382 10.6313 6.86868C10.6313 10.6561 13.7126 13.7374 17.5 13.7374C21.2873 13.7374 24.3686 10.6561 24.3686 6.86875C24.3686 4.15987 22.7696 1.69641 20.295 0.592814Z" fill="#00B2FF"/>
<path d="M17.5245 0H17.5C17.1225 0 16.8164 0.306045 16.8164 0.683594C16.8164 1.06114 17.1225 1.36719 17.5 1.36719H17.518C17.5191 1.36719 17.5202 1.36719 17.5213 1.36719C17.8974 1.36719 18.2031 1.06326 18.2049 0.686807C18.2066 0.309258 17.902 0.00177734 17.5245 0Z" fill="#00B2FF"/>
<path d="M17.9832 31.0987C17.8562 30.9716 17.6798 30.8984 17.5 30.8984C17.3202 30.8984 17.1438 30.9716 17.0167 31.0987C16.8896 31.2259 16.8164 31.4022 16.8164 31.582C16.8164 31.7618 16.8895 31.9382 17.0167 32.0653C17.1439 32.1925 17.3202 32.2656 17.5 32.2656C17.6798 32.2656 17.8562 32.1925 17.9832 32.0653C18.1104 31.9382 18.1836 31.7618 18.1836 31.582C18.1836 31.4022 18.1104 31.2259 17.9832 31.0987Z" fill="#00B2FF"/>
</g></symbol><symbol id="icon-ok" viewBox="0 0 30 30"><g fill="none">
<path d="M15.1711 12.6428C16.3282 12.6428 17.2282 11.6785 17.2068 10.6285C17.2282 9.57849 16.3496 8.59277 15.1925 8.59277C14.0782 8.59277 13.1568 9.49277 13.1568 10.6071C13.1568 11.7213 14.0568 12.6428 15.1711 12.6428Z" fill="#F8FDFF"/>
<path d="M15 0C6.72856 0 0 6.72857 0 15C0 23.2929 6.72856 30 15 30C23.2928 30 29.9999 23.2714 29.9999 15C30.0214 6.72857 23.2928 0 15 0ZM15.2143 5.67857C17.9143 5.67857 20.1428 7.90714 20.1214 10.6286C20.1214 13.3714 17.8714 15.5786 15.1285 15.5357C12.4285 15.4929 10.2643 13.2857 10.2643 10.6071C10.2643 7.88571 12.4714 5.67857 15.2143 5.67857ZM20.7214 17.25C20.7214 17.2929 20.7 17.3143 20.7 17.3571C20.6357 17.7857 20.4214 18.1286 20.0571 18.3643C19.8214 18.5143 19.5643 18.6643 19.3071 18.7929C18.6643 19.1143 17.9785 19.3714 17.2714 19.5429C17.1857 19.5643 17.1857 19.5643 17.25 19.6286C17.6357 20.0143 18.0428 20.4214 18.4285 20.8071C18.9214 21.3 19.4357 21.8143 19.9285 22.3071C20.6357 23.0143 20.4428 24.1929 19.5428 24.6214C19.3928 24.7071 19.2214 24.7286 19.05 24.7714C18.9643 24.7714 18.8571 24.7714 18.7714 24.7714C18.75 24.7714 18.7285 24.7714 18.7285 24.75C18.3857 24.7071 18.1071 24.5357 17.85 24.3C16.9928 23.4429 16.1143 22.5643 15.2571 21.7071C15.1928 21.6429 15.1928 21.6429 15.1285 21.7071C14.25 22.5857 13.3928 23.4429 12.5143 24.3214C12.3643 24.4714 12.2143 24.5786 12.0214 24.6643C11.8928 24.7286 11.7428 24.75 11.6143 24.7714C11.5286 24.7714 11.4428 24.7714 11.3357 24.7714C11.2928 24.7714 11.2714 24.75 11.2286 24.75C10.65 24.6429 10.2643 24.3214 10.0928 23.7643C9.92141 23.2071 10.05 22.7143 10.4571 22.3071C10.8214 21.9429 11.1643 21.6 11.5286 21.2357C12.0643 20.7 12.6 20.1643 13.1143 19.65C13.1785 19.5857 13.1785 19.5857 13.0928 19.5643C13.0714 19.5643 13.0285 19.5429 13.0071 19.5429C12.0428 19.3071 11.1643 18.9214 10.3286 18.4071C9.8357 18.0857 9.59998 17.6143 9.66427 17.0357C9.77141 15.9643 10.9714 15.3857 11.8714 15.9643C12.0428 16.0714 12.1928 16.1571 12.3857 16.2429C13.3714 16.7357 14.4214 16.95 15.5143 16.8857C16.05 16.8643 16.5857 16.7571 17.1214 16.5857C17.6357 16.4143 18.0857 16.1786 18.5571 15.9214C19.3285 15.4714 20.3357 15.8357 20.6357 16.6714C20.6785 16.8 20.7 16.9071 20.7214 17.0357C20.7214 17.1 20.7214 17.1643 20.7214 17.25Z" fill="#F8FDFF"/>
</g></symbol><symbol id="icon-phone-call" viewBox="0 0 21 20"><g fill="currentColor">
<path d="M16.3147 12.3893C15.9047 11.9629 15.4101 11.735 14.8859 11.735C14.366 11.735 13.8672 11.9587 13.4402 12.3851L12.1044 13.7147C11.9945 13.6556 11.8846 13.6007 11.7789 13.5459C11.6267 13.4699 11.483 13.3981 11.3604 13.3222C10.1091 12.5286 8.97196 11.4944 7.88132 10.1563C7.35291 9.48936 6.99782 8.92795 6.73995 8.35809C7.08659 8.04151 7.40786 7.71226 7.72068 7.39567C7.83905 7.27748 7.95741 7.15507 8.07578 7.03688C8.9635 6.15044 8.9635 5.00229 8.07578 4.11585L6.92173 2.96348C6.79068 2.83262 6.65541 2.69755 6.52859 2.56247C6.27495 2.30076 6.00863 2.03061 5.73386 1.77734C5.32381 1.37211 4.83345 1.15683 4.31772 1.15683C3.80199 1.15683 3.30317 1.37211 2.88045 1.77734C2.87622 1.78156 2.87622 1.78156 2.87199 1.78578L1.43471 3.23363C0.893623 3.77394 0.585031 4.43243 0.517395 5.19646C0.41594 6.42903 0.779486 7.57718 1.05849 8.32854C1.74331 10.1732 2.76631 11.8827 4.29236 13.7147C6.14391 15.9224 8.37168 17.6657 10.9165 18.8941C11.8888 19.3542 13.1866 19.8987 14.6365 19.9916C14.7253 19.9958 14.8183 20 14.9028 20C15.8793 20 16.6994 19.6496 17.342 18.9532C17.3462 18.9447 17.3547 18.9405 17.3589 18.932C17.5787 18.6661 17.8323 18.4255 18.0987 18.168C18.2804 17.995 18.4664 17.8134 18.6482 17.6235C19.0667 17.1887 19.2865 16.6822 19.2865 16.163C19.2865 15.6396 19.0625 15.1372 18.6355 14.7151L16.3147 12.3893ZM17.8281 16.8341C17.8239 16.8341 17.8239 16.8384 17.8281 16.8341C17.6633 17.0114 17.4942 17.1718 17.3124 17.3491C17.0376 17.6108 16.7586 17.8852 16.4965 18.1933C16.0696 18.6492 15.5665 18.8645 14.9071 18.8645C14.8437 18.8645 14.776 18.8645 14.7126 18.8603C13.4571 18.7801 12.2904 18.2904 11.4153 17.8725C9.02269 16.7159 6.92173 15.0739 5.17586 12.9929C3.73436 11.258 2.77054 9.65398 2.13222 7.93176C1.73908 6.88069 1.59535 6.06179 1.65876 5.28932C1.70103 4.79545 1.89126 4.386 2.24213 4.03565L3.68363 2.59624C3.89077 2.40207 4.11058 2.29654 4.32618 2.29654C4.59249 2.29654 4.80809 2.45694 4.94336 2.59202C4.94759 2.59624 4.95181 2.60046 4.95604 2.60468C5.2139 2.84529 5.45909 3.09433 5.71695 3.36026C5.848 3.49534 5.98327 3.63042 6.11854 3.76971L7.27259 4.92209C7.72068 5.36953 7.72068 5.7832 7.27259 6.23064C7.15 6.35305 7.03164 6.47546 6.90905 6.59366C6.55395 6.95667 6.21577 7.29437 5.848 7.62361C5.83954 7.63206 5.83109 7.63628 5.82686 7.64472C5.46332 8.00774 5.53095 8.36231 5.60704 8.60292C5.61127 8.61558 5.6155 8.62824 5.61972 8.64091C5.91986 9.36694 6.34259 10.0508 6.98514 10.8654L6.98936 10.8697C8.15609 12.3049 9.38623 13.4235 10.7432 14.2803C10.9165 14.3901 11.0941 14.4787 11.2631 14.5632C11.4153 14.6391 11.5591 14.7109 11.6816 14.7869C11.6986 14.7953 11.7155 14.808 11.7324 14.8164C11.8761 14.8882 12.0114 14.922 12.1509 14.922C12.5017 14.922 12.7216 14.7025 12.7934 14.6307L14.2392 13.1871C14.3829 13.0436 14.6112 12.8705 14.8775 12.8705C15.1396 12.8705 15.3552 13.0351 15.4862 13.1786C15.4904 13.1829 15.4904 13.1829 15.4947 13.1871L17.8239 15.5129C18.2593 15.9435 18.2593 16.3867 17.8281 16.8341Z"/>
<path d="M11.3095 4.75747C12.4171 4.9432 13.4232 5.46662 14.2264 6.26863C15.0295 7.07065 15.5495 8.07528 15.7397 9.18122C15.7862 9.45981 16.0272 9.65399 16.3019 9.65399C16.3358 9.65399 16.3654 9.64977 16.3992 9.64554C16.712 9.59489 16.9191 9.29941 16.8684 8.98705C16.6401 7.64895 16.006 6.42904 15.038 5.4624C14.0699 4.49576 12.8483 3.86258 11.5082 3.63464C11.1954 3.58399 10.9037 3.79083 10.8488 4.09897C10.7938 4.40711 10.9967 4.70681 11.3095 4.75747Z"/>
<path d="M20.4913 8.82242C20.1151 6.61899 19.0752 4.61395 17.4773 3.01836C15.8794 1.42277 13.8714 0.384369 11.6648 0.00868773C11.3562 -0.0461871 11.0645 0.16487 11.0095 0.473013C10.9588 0.785377 11.1659 1.07664 11.4788 1.13151C13.4487 1.46498 15.2453 2.39785 16.6741 3.82038C18.1029 5.24712 19.0329 7.0411 19.3669 9.00815C19.4134 9.28675 19.6543 9.48092 19.9291 9.48092C19.9629 9.48092 19.9925 9.4767 20.0263 9.47248C20.3349 9.42605 20.5463 9.13057 20.4913 8.82242Z"/>
</g></symbol><symbol id="icon-pinterest" viewBox="0 0 30 30"><g fill="none">
<path d="M14.9999 0C23.2847 0 30 6.71625 30 15.0001C30 23.2848 23.2847 30 14.9999 30C6.71522 30 0 23.2847 0 15.0001C0 6.71625 6.71532 0 14.9999 0Z" fill="#F8FDFF"/>
<path d="M15 5C9.4823 5 5 9.4823 5 15C5 20.5177 9.4823 25 15 25C20.5177 25 25 20.5177 25 15C25 9.4823 20.5177 5 15 5ZM15 5.86957C20.0477 5.86957 24.1304 9.95225 24.1304 15C24.1304 20.0477 20.0477 24.1304 15 24.1304C14.0767 24.1304 13.186 23.9922 12.3463 23.7381C12.7203 23.1128 13.2032 22.219 13.395 21.481C13.509 21.0434 13.9776 19.2587 13.9776 19.2587C14.2821 19.84 15.1719 20.332 16.1192 20.332C18.9383 20.332 20.9706 17.7394 20.9706 14.5177C20.9706 11.4289 18.4502 9.11855 15.2072 9.11855C11.1725 9.11855 9.03108 11.8264 9.03108 14.775C9.03108 16.1462 9.7604 17.8531 10.9282 18.3967C11.105 18.4791 11.2 18.4434 11.2407 18.2719C11.2719 18.1418 11.4297 17.5073 11.5005 17.2121C11.5232 17.1179 11.5122 17.0365 11.436 16.9438C11.0495 16.475 10.7396 15.6138 10.7396 14.8106C10.7396 12.7487 12.3006 10.7532 14.9601 10.7532C17.2564 10.7532 18.8646 12.3186 18.8646 14.5567C18.8646 17.0853 17.5879 18.8375 15.9265 18.8375C15.0089 18.8375 14.3219 18.0784 14.5423 17.1476C14.8065 16.0366 15.3167 14.8378 15.3167 14.0353C15.3167 13.3177 14.9316 12.7191 14.1338 12.7191C13.1958 12.7191 12.4423 13.6889 12.4423 14.989C12.4423 15.8162 12.7225 16.3765 12.7225 16.3765C12.7225 16.3765 11.7959 20.2941 11.6262 21.0233C11.4561 21.7519 11.5017 22.7332 11.5718 23.4638C8.22658 22.1098 5.86957 18.8345 5.86957 15C5.86957 9.95225 9.95225 5.86957 15 5.86957Z" fill="#041827"/>
</g></symbol><symbol id="icon-stopwatch" viewBox="0 0 35 35"><g fill="none">
<path d="M3.84798 11.6622L2.05404 10.1904C1.07943 9.39114 1.07943 8.09017 2.05404 7.29042C3.02864 6.49094 4.61458 6.49094 5.58919 7.29042L7.50456 8.86162C9.5026 7.72007 11.7803 6.92993 14.1667 6.55075V4.51172H12.5C12.0397 4.51172 11.6667 4.2057 11.6667 3.82812V2.05078C11.6667 0.919914 12.7881 0 14.1667 0H20.8333C22.2119 0 23.3333 0.919914 23.3333 2.05078V3.82812C23.3333 4.2057 22.9603 4.51172 22.5 4.51172H20.8333V6.55075C23.2194 6.92966 25.4974 7.72007 27.4954 8.86162L29.4108 7.29042C30.3851 6.49094 31.971 6.49094 32.946 7.29042C33.9206 8.0899 33.9206 9.39087 32.946 10.1904L31.152 11.6622C33.6387 14.203 35 17.3678 35 20.6445C35 28.5601 27.1494 35 17.5 35C7.85059 35 0 28.5601 0 20.6445C0 17.3678 1.36133 14.203 3.84798 11.6622ZM4.41081 8.25706C4.08561 7.99057 3.55729 7.99084 3.23242 8.25706C2.90788 8.52356 2.90788 8.95721 3.23242 9.22371L4.95443 10.636C5.34245 10.3092 5.74935 9.99756 6.17253 9.70249L4.41081 8.25706ZM21.6667 2.05078C21.6667 1.67374 21.293 1.36719 20.8333 1.36719H14.1667C13.707 1.36719 13.3333 1.67374 13.3333 2.05078V3.14453H21.6667V2.05078ZM15.8333 4.51172V6.35368C16.9378 6.26877 18.0618 6.26877 19.1667 6.35368V4.51172H15.8333ZM31.7676 8.25706C31.4427 7.99084 30.9141 7.99057 30.5892 8.25706L28.8275 9.70249C29.2507 9.99756 29.6576 10.3092 30.0456 10.636L31.7676 9.22371C32.0921 8.95721 32.0921 8.52356 31.7676 8.25706ZM17.5 33.6328C26.2305 33.6328 33.3333 27.8062 33.3333 20.6445C33.3333 17.4853 31.9352 14.4415 29.3968 12.0732C28.6976 11.4208 27.9173 10.8248 27.0778 10.3009C24.974 8.98766 22.4837 8.12328 19.8763 7.80098C19.096 7.70512 18.2965 7.65625 17.5 7.65625C16.7034 7.65625 15.904 7.70512 15.124 7.80098C12.5163 8.12328 10.026 8.98766 7.92188 10.3009C7.08268 10.8248 6.30241 11.4208 5.60319 12.0732C3.06478 14.4415 1.66666 17.4853 1.66666 20.6445C1.66666 27.8062 8.76953 33.6328 17.5 33.6328Z" fill="#F2F5F7"/>
<path d="M17.5 22.6953C16.1214 22.6953 15 21.7754 15 20.6445C15 19.7535 15.6966 18.9935 16.6667 18.7112V13.8086C16.6667 13.431 17.0397 13.125 17.5 13.125C17.9603 13.125 18.3334 13.431 18.3334 13.8086V18.7112C19.3034 18.9935 20 19.7535 20 20.6445C20 21.7754 18.8786 22.6953 17.5 22.6953ZM17.5 19.9609C17.0404 19.9609 16.6667 20.2675 16.6667 20.6445C16.6667 21.0216 17.0404 21.3281 17.5 21.3281C17.9597 21.3281 18.3334 21.0216 18.3334 20.6445C18.3334 20.2675 17.9597 19.9609 17.5 19.9609Z" fill="#F2F5F7"/>
<path d="M8.62274 13.4326C8.63576 13.42 8.64878 13.4075 8.66343 13.3957C8.67905 13.3826 8.69565 13.3709 8.71225 13.3591C10.181 12.1671 11.9955 11.2851 13.9645 10.8082C14.4063 10.7014 14.8695 10.9081 14.9997 11.2702C15.1299 11.6323 14.8779 12.0125 14.4365 12.1193C12.9776 12.4729 11.6166 13.0838 10.4564 13.8996L11.0186 14.3608C11.3438 14.6278 11.3438 15.0607 11.0186 15.3277C10.8558 15.4612 10.6426 15.528 10.4291 15.528C10.2158 15.528 10.0026 15.4612 9.83986 15.3277L9.27638 14.8655C7.76857 16.3037 6.87306 18.0741 6.69858 19.9609H7.50002C7.9603 19.9609 8.33335 20.2672 8.33335 20.6445C8.33335 21.0221 7.9603 21.3281 7.50002 21.3281H6.69858C6.87306 23.2152 7.76857 24.9853 9.27638 26.4235L9.83986 25.9613C10.1654 25.6945 10.693 25.6945 11.0186 25.9613C11.3441 26.2283 11.3441 26.6612 11.0186 26.9282L10.4551 27.3904C12.2083 28.6273 14.3666 29.3619 16.6667 29.5053V28.8476C16.6667 28.47 17.0397 28.164 17.5 28.164C17.9603 28.164 18.3333 28.47 18.3333 28.8476V29.505C20.6335 29.3619 22.7917 28.6273 24.5449 27.3904L23.9815 26.9282C23.6559 26.6612 23.6559 26.2283 23.9815 25.9613C24.307 25.6945 24.8347 25.6945 25.1602 25.9613L25.7236 26.4235C27.2315 24.9853 28.127 23.2149 28.3014 21.3281H27.5C27.0397 21.3281 26.6667 21.0221 26.6667 20.6445C26.6667 20.2669 27.0397 19.9609 27.5 19.9609H28.3014C28.127 18.0741 27.2315 16.3037 25.7236 14.8655L25.1602 15.3277C24.9974 15.4612 24.7842 15.528 24.571 15.528C24.3574 15.528 24.1442 15.4612 23.9815 15.3277C23.6563 15.0607 23.6563 14.6278 23.9815 14.3608L24.5436 13.8996C23.3835 13.0836 22.0225 12.4729 20.5635 12.1193C20.1221 12.0125 19.8701 11.6323 20.0003 11.2702C20.1305 10.9081 20.5934 10.7017 21.0355 10.8082C23.0042 11.2849 24.818 12.1666 26.2865 13.3581C26.3037 13.3701 26.3207 13.3824 26.3366 13.3955C26.3509 13.4072 26.3636 13.4195 26.3766 13.4318C28.7136 15.3667 30 17.9259 30 20.6445C30 23.3628 28.7136 25.9218 26.3773 27.8564C26.3643 27.869 26.3513 27.8815 26.3366 27.8933C26.3223 27.9053 26.3073 27.9157 26.2923 27.9264C23.9336 29.8431 20.8141 30.8984 17.5 30.8984C14.1862 30.8984 11.0667 29.8434 8.70835 27.9269C8.69305 27.916 8.67775 27.9053 8.66343 27.8933C8.6491 27.8818 8.63641 27.8692 8.62339 27.8572C6.28647 25.9223 5.00002 23.3631 5.00002 20.6445C5.00002 17.9261 6.28647 15.3672 8.62274 13.4326Z" fill="#F2F5F7"/>
<path d="M17.5 11.7578C17.04 11.7578 16.6667 11.4515 16.6667 11.0742C16.6667 10.6969 17.04 10.3906 17.5 10.3906C17.96 10.3906 18.3333 10.6969 18.3333 11.0742C18.3333 11.4515 17.96 11.7578 17.5 11.7578Z" fill="#F2F5F7"/>
</g></symbol><symbol id="icon-tag" viewBox="0 0 35 35"><g fill="none">
<path d="M11.0709 8.58472C10.9437 8.45756 10.7674 8.3844 10.5876 8.3844C10.4078 8.3844 10.2314 8.45756 10.1043 8.58472C9.9772 8.71189 9.90399 8.88828 9.90399 9.0681C9.90399 9.24791 9.97714 9.4243 10.1043 9.55147C10.2314 9.67871 10.4078 9.75179 10.5876 9.75179C10.7674 9.75179 10.9437 9.67864 11.0709 9.55147C11.198 9.4243 11.2712 9.24791 11.2712 9.0681C11.2712 8.88828 11.198 8.71189 11.0709 8.58472Z" fill="#00B2FF"/>
<path d="M34.8 2.85866L33.9548 2.01231L34.7998 1.16719C35.0667 0.900207 35.0667 0.46729 34.7998 0.200238C34.5328 -0.0667459 34.1 -0.0667459 33.833 0.200238L32.9885 1.04481L32.1556 0.210835C32.0275 0.0825735 31.8537 0.0103751 31.6724 0.0103067L20.1023 0.00387998C20.1016 0.00387998 20.101 0.00387998 20.1004 0.00387998C19.1868 0.00387998 18.3278 0.359676 17.6818 1.00584L11.9081 6.78034C11.6412 7.04732 11.6412 7.48024 11.9081 7.74729C12.1751 8.01428 12.6079 8.01428 12.8749 7.74729L18.6486 1.97279C19.0364 1.58486 19.5519 1.37134 20.1004 1.37134C20.1008 1.37134 20.1012 1.37134 20.1016 1.37134L31.3884 1.37763L32.0219 2.01183L29.4854 4.54862C28.4099 3.9043 26.9919 4.0448 26.066 4.97066C25.5371 5.49971 25.2459 6.20303 25.2459 6.95113C25.2459 7.69923 25.5371 8.40255 26.066 8.93159C26.612 9.47759 27.3291 9.75059 28.0463 9.75059C28.7634 9.75059 29.4805 9.47759 30.0264 8.93159C30.9508 8.00703 31.0922 6.59164 30.4514 5.51646L32.9881 2.97933L33.6327 3.62481L33.6265 14.8981C33.6261 15.4461 33.4126 15.9614 33.025 16.349L16.3438 33.0327C15.956 33.4205 15.4403 33.6341 14.892 33.6341C14.3436 33.6341 13.8279 33.4205 13.4401 33.0327L1.96861 21.5593C1.58074 21.1715 1.36719 20.6558 1.36719 20.1073C1.36719 19.5588 1.58074 19.0431 1.96861 18.6553L9.33734 11.2854C9.60429 11.0184 9.60429 10.5855 9.33734 10.3185C9.07033 10.0515 8.63762 10.0515 8.37054 10.3185L1.00181 17.6883C0.355811 18.3344 0 19.1935 0 20.1073C0 21.0211 0.355811 21.8802 1.00181 22.5263L12.4733 33.9996C13.1402 34.6665 14.016 35 14.892 35C15.7679 35 16.6437 34.6665 17.3106 33.9996L33.9918 17.3158C34.6373 16.6702 34.993 15.8118 34.9936 14.8987L35 3.34217C35.0001 3.16085 34.9282 2.98692 34.8 2.85866ZM29.0596 7.96457C28.7889 8.23532 28.429 8.38443 28.0463 8.38443C27.6634 8.38443 27.3036 8.23532 27.0329 7.96457C26.474 7.40572 26.474 6.49633 27.0329 5.93748C27.3123 5.65798 27.6792 5.51831 28.0463 5.51831C28.1845 5.51831 28.3227 5.5382 28.4562 5.57786L27.6672 6.36698C27.4003 6.63396 27.4003 7.06688 27.6672 7.33393C27.8007 7.46746 27.9757 7.53419 28.1506 7.53419C28.3255 7.53419 28.5005 7.46746 28.634 7.33393L29.4208 6.547C29.5629 7.03372 29.4427 7.5815 29.0596 7.96457Z" fill="#00B2FF"/>
<path d="M29.2003 13.7645L21.2338 5.79669C20.1785 4.7412 18.4612 4.74134 17.406 5.79669L4.79912 18.4056C4.28786 18.9168 4.00629 19.5966 4.00629 20.3197C4.00629 21.0428 4.28779 21.7227 4.79905 22.2339L12.7657 30.2016C13.2769 30.7129 13.9565 30.9946 14.6795 30.9946C15.4025 30.9946 16.0822 30.713 16.5934 30.2017L29.2003 17.5928C29.7116 17.0815 29.9931 16.4017 29.9931 15.6786C29.9931 14.9556 29.7116 14.2758 29.2003 13.7645ZM28.2335 16.6258L15.6266 29.2349C15.3737 29.4878 15.0373 29.6272 14.6796 29.6272C14.3219 29.6272 13.9855 29.4878 13.7325 29.2348L5.76586 21.267C5.51286 21.014 5.37354 20.6776 5.37354 20.3198C5.37347 19.9619 5.51286 19.6255 5.76586 19.3725L18.3728 6.76365C18.634 6.50247 18.9769 6.37189 19.3199 6.37189C19.6629 6.37189 20.0059 6.50254 20.267 6.76365L28.2335 14.7314C28.4865 14.9844 28.6258 15.3208 28.6258 15.6786C28.6258 16.0364 28.4865 16.3729 28.2335 16.6258Z" fill="#00B2FF"/>
<path d="M22.2904 13.677C22.5574 13.41 22.5574 12.9771 22.2904 12.71C22.0234 12.443 21.5907 12.443 21.3236 12.71L20.93 13.1037C19.879 12.4544 18.5304 12.5415 17.6779 13.394C17.1808 13.8912 16.9265 14.5662 16.9618 15.2949C16.9959 15.9985 17.2989 16.6702 17.8148 17.1862C17.8149 17.1863 17.8149 17.1863 17.8149 17.1864C18.3648 17.7365 18.4261 18.5701 17.9517 19.0446C17.4771 19.5191 16.6435 19.4577 16.0935 18.9077C15.5435 18.3575 15.4821 17.5238 15.9566 17.0492C16.2235 16.7822 16.2235 16.3493 15.9566 16.0823C15.6896 15.8153 15.2569 15.8153 14.9898 16.0823C14.1373 16.9348 14.0503 18.2836 14.6995 19.3349L14.2324 19.8019C13.9655 20.0689 13.9655 20.5018 14.2324 20.7689C14.3663 20.9025 14.5412 20.9693 14.7161 20.9693C14.8911 20.9693 15.066 20.9025 15.1995 20.769L15.6668 20.3016C16.1261 20.5853 16.6419 20.729 17.1486 20.729C17.8013 20.7289 18.4387 20.4915 18.9186 20.0115C19.9259 19.004 19.8647 17.3033 18.7822 16.22C18.782 16.2198 18.7819 16.2196 18.7817 16.2194C18.5065 15.9441 18.3451 15.5923 18.3275 15.2287C18.3112 14.8901 18.4238 14.582 18.6448 14.361C19.1192 13.8864 19.9526 13.9478 20.5027 14.4977C20.5028 14.4978 20.5028 14.4979 20.5028 14.4979C20.5029 14.498 20.503 14.498 20.503 14.498C21.0529 15.0482 21.1142 15.8817 20.6397 16.3563C20.3727 16.6233 20.3727 17.0562 20.6397 17.3232C20.7732 17.4568 20.9481 17.5235 21.1231 17.5235C21.298 17.5235 21.4729 17.4568 21.6064 17.3232C22.4589 16.4706 22.546 15.1218 21.8968 14.0706L22.2904 13.677Z" fill="#00B2FF"/>
<path d="M15.3717 25.0115L11.8607 21.4999C11.5937 21.2332 11.161 21.233 10.8939 21.4999C10.6269 21.7669 10.6269 22.1998 10.8939 22.4669L14.4049 25.9785C14.5385 26.112 14.7134 26.1788 14.8883 26.1788C15.0632 26.1788 15.2382 26.112 15.3717 25.9785C15.6386 25.7115 15.6386 25.2786 15.3717 25.0115Z" fill="#00B2FF"/>
<path d="M9.98793 19.627C9.86085 19.4999 9.6851 19.4266 9.5047 19.4266C9.32491 19.4266 9.14923 19.4998 9.0214 19.627C8.89425 19.7541 8.82111 19.9305 8.82111 20.111C8.82111 20.2908 8.89418 20.4672 9.0214 20.5944C9.14855 20.7216 9.32491 20.7947 9.5047 20.7947C9.68517 20.7947 9.86085 20.7216 9.98793 20.5944C10.1158 20.4665 10.1889 20.2908 10.1889 20.111C10.1889 19.9305 10.1158 19.7548 9.98793 19.627Z" fill="#00B2FF"/>
</g></symbol><symbol id="icon-vk" viewBox="0 0 30 30"><g fill="none">
<path d="M21.617 17.4544C20.3818 16.2726 20.2935 16.2726 21.3523 14.9091C22.6758 13.1819 24.4405 11.0002 22.8523 11.0002H19.9406C19.4112 11.0002 19.323 11.3638 19.1465 11.8184C18.4406 13.5455 17.0289 15.8181 16.4995 15.4545C15.9701 15.0909 16.2348 13.7273 16.2348 11.5457C16.323 11.2729 16.2348 11.0002 16.0583 10.8184C15.8819 10.6366 15.6172 10.4548 15.3525 10.4548C14.9113 10.3639 14.4702 10.273 14.029 10.273C12.3526 10.273 11.2056 11.0002 11.8232 11.0911C12.9702 11.2729 12.882 13.8182 12.6173 14.9091C12.1761 16.8181 10.4115 13.4546 9.61736 11.7275C9.52913 11.2729 9.1762 11.0002 8.73504 11.0002H6.44099C6.08806 11.0002 5.82336 11.0911 5.82336 11.3638C5.82336 11.8184 8.02917 16.2726 10.0585 18.5452C12.0879 20.7269 14.1172 20.5451 15.529 20.5451C15.7054 20.5451 15.8819 20.4542 15.9701 20.3633C16.0583 20.2724 16.1466 20.0906 16.1466 19.9088C16.1466 18.4543 16.676 17.7271 17.6465 18.727C18.7053 19.8179 18.97 20.5451 20.2935 20.5451H22.6758C23.2934 20.5451 23.4699 20.3633 23.4699 20.0906C23.5581 19.4543 22.4993 18.2725 21.617 17.4544ZM15.3525 0.000910576C23.5581 0.182718 30.0873 7.00048 29.9991 15.2727C29.9109 23.5449 23.117 30.09 14.9113 29.9991C6.61745 29.9082 0 23.2722 0 15C0.0882327 6.63687 6.97038 -0.0899929 15.3525 0.000910576Z" fill="#F8FDFF"/>
</g></symbol><symbol id="logo-smart-device" viewBox="0 0 215 55"><g fill="none">
<g class="logo__icon">
    <path d="M33.9167 14.6664C35.1102 14.6664 36.1185 15.4355 36.498 16.4997H46.002C46.3815 15.4355 47.3899 14.6664 48.5834 14.6664C50.0995 14.6664 51.3334 15.9002 51.3334 17.4164C51.3334 18.9325 50.0995 20.1663 48.5834 20.1663C47.3899 20.1663 46.3815 19.3973 46.002 18.333H36.4971C36.1176 19.3973 35.1093 20.1663 33.9158 20.1663C32.3996 20.1663 31.1658 18.9325 31.1658 17.4164C31.1658 15.9002 32.4005 14.6664 33.9167 14.6664ZM48.5834 18.333C49.0884 18.333 49.5 17.9224 49.5 17.4164C49.5 16.9104 49.0884 16.4997 48.5834 16.4997C48.0783 16.4997 47.6667 16.9104 47.6667 17.4164C47.6667 17.9224 48.0783 18.333 48.5834 18.333ZM33.9167 18.333C34.4218 18.333 34.8334 17.9224 34.8334 17.4164C34.8334 16.9104 34.4218 16.4997 33.9167 16.4997C33.4116 16.4997 33 16.9104 33 17.4164C33 17.9224 33.4116 18.333 33.9167 18.333Z" fill="#00B2FF"/>
    <path d="M26.5834 20.335V14.6664C26.5834 14.4226 26.6796 14.1898 26.8519 14.0183L30.5186 10.3517C30.69 10.1794 30.9238 10.0832 31.1667 10.0832H34.0854C34.4649 9.01893 35.4732 8.24986 36.6667 8.24986C38.1829 8.24986 39.4167 9.48368 39.4167 10.9998C39.4167 12.516 38.1829 13.7498 36.6667 13.7498C35.4732 13.7498 34.4649 12.9807 34.0854 11.9165H31.5462L28.4167 15.0459V20.335C29.4809 20.7145 30.25 21.7228 30.25 22.9163C30.25 24.4324 29.0162 25.6662 27.5 25.6662C25.9839 25.6662 24.75 24.4324 24.75 22.9163C24.75 21.7228 25.5191 20.7145 26.5834 20.335ZM36.6667 11.9165C37.1718 11.9165 37.5834 11.5058 37.5834 10.9998C37.5834 10.4938 37.1718 10.0832 36.6667 10.0832C36.1616 10.0832 35.75 10.4938 35.75 10.9998C35.75 11.5058 36.1616 11.9165 36.6667 11.9165ZM27.5 23.8329C28.0051 23.8329 28.4167 23.4223 28.4167 22.9163C28.4167 22.4103 28.0051 21.9996 27.5 21.9996C26.9949 21.9996 26.5834 22.4103 26.5834 22.9163C26.5834 23.4223 26.9949 23.8329 27.5 23.8329Z" fill="#00B2FF"/>
    <path d="M10.0833 23.8329C10.5068 23.8329 10.9028 23.9365 11.2613 24.1088L12.8333 22.5368V13.7498C12.8333 13.5059 12.9296 13.2731 13.1019 13.1017L22.2759 3.92785C22.1036 3.56944 22 3.17345 22 2.74995C22 1.23381 23.2338 0 24.75 0C26.2662 0 27.5 1.23381 27.5 2.74995C27.5 4.2661 26.2662 5.49991 24.75 5.49991C24.3265 5.49991 23.9305 5.39633 23.5721 5.224L14.6667 14.1293V22.9163C14.6667 23.1601 14.5704 23.3929 14.3981 23.5644L12.5574 25.405C12.7298 25.7634 12.8333 26.1594 12.8333 26.5829C12.8333 28.099 11.5995 29.3328 10.0833 29.3328C8.56718 29.3328 7.33334 28.099 7.33334 26.5829C7.33334 25.0667 8.56718 23.8329 10.0833 23.8329ZM24.75 3.66661C25.2551 3.66661 25.6667 3.25595 25.6667 2.74995C25.6667 2.24396 25.2551 1.8333 24.75 1.8333C24.2449 1.8333 23.8333 2.24396 23.8333 2.74995C23.8333 3.25595 24.2449 3.66661 24.75 3.66661ZM10.0833 27.4995C10.5884 27.4995 11 27.0889 11 26.5829C11 26.0769 10.5884 25.6662 10.0833 25.6662C9.57826 25.6662 9.16668 26.0769 9.16668 26.5829C9.16668 27.0889 9.57826 27.4995 10.0833 27.4995Z" fill="#00B2FF"/>
    <path d="M1.83336 13.0018V9.16651C1.83336 8.92268 1.92961 8.68986 2.10195 8.51844L8.51861 2.10188C8.69003 1.92955 8.92378 1.8333 9.1667 1.8333H13.9187C14.2982 0.769071 15.3065 0 16.5 0C18.0162 0 19.25 1.23381 19.25 2.74995C19.25 4.2661 18.0162 5.49991 16.5 5.49991C15.3065 5.49991 14.2982 4.73084 13.9187 3.66661H9.5462L3.6667 9.54601V13.0018C4.73095 13.3813 5.50003 14.3896 5.50003 15.5831C5.50003 17.0992 4.2662 18.333 2.75003 18.333C1.23386 18.333 3.01003e-05 17.0992 3.01003e-05 15.5831C3.01003e-05 14.3896 0.769113 13.3813 1.83336 13.0018ZM16.5 3.66661C17.0051 3.66661 17.4167 3.25595 17.4167 2.74995C17.4167 2.24396 17.0051 1.8333 16.5 1.8333C15.9949 1.8333 15.5834 2.24396 15.5834 2.74995C15.5834 3.25595 15.9949 3.66661 16.5 3.66661ZM2.75003 16.4997C3.25511 16.4997 3.6667 16.0891 3.6667 15.5831C3.6667 15.0771 3.25511 14.6664 2.75003 14.6664C2.24495 14.6664 1.83336 15.0771 1.83336 15.5831C1.83336 16.0891 2.24495 16.4997 2.75003 16.4997Z" fill="#00B2FF"/>
    <path d="M14.6658 49.6688V36.4974C13.6024 36.1179 12.8334 35.1096 12.8334 33.9161C12.8334 32.4 14.0672 31.1662 15.5834 31.1662C16.7769 31.1662 17.7852 31.9352 18.1647 32.9995H27.6687C28.0482 31.9352 29.0565 31.1662 30.25 31.1662C31.4435 31.1662 32.4519 31.9352 32.8314 32.9995H38.1205L41.5259 29.5941C41.3536 29.2357 41.25 28.8397 41.25 28.4162C41.25 26.9001 42.4839 25.6663 44 25.6663C45.5162 25.6663 46.75 26.9001 46.75 28.4162C46.75 29.9324 45.5162 31.1662 44 31.1662C43.5765 31.1662 43.1805 31.0626 42.8221 30.8903L39.1481 34.5642C38.9767 34.7365 38.7429 34.8328 38.5 34.8328H32.8314C32.4519 35.897 31.4435 36.6661 30.25 36.6661C29.0565 36.6661 28.0482 35.897 27.6687 34.8328H18.1638C17.8869 35.6092 17.2755 36.2206 16.4991 36.4974V49.6688C17.5634 50.0483 18.3324 51.0566 18.3324 52.2501C18.3324 53.7662 17.0986 55 15.5824 55C14.0663 55 12.8324 53.7662 12.8324 52.2501C12.8324 51.0566 13.6015 50.0483 14.6658 49.6688ZM44 29.3329C44.5051 29.3329 44.9167 28.9222 44.9167 28.4162C44.9167 27.9102 44.5051 27.4996 44 27.4996C43.4949 27.4996 43.0834 27.9102 43.0834 28.4162C43.0834 28.9222 43.4949 29.3329 44 29.3329ZM30.25 34.8328C30.7551 34.8328 31.1667 34.4221 31.1667 33.9161C31.1667 33.4101 30.7551 32.9995 30.25 32.9995C29.7449 32.9995 29.3334 33.4101 29.3334 33.9161C29.3334 34.4221 29.7449 34.8328 30.25 34.8328ZM15.5834 53.1658C16.0884 53.1658 16.5 52.7551 16.5 52.2492C16.5 51.7432 16.0884 51.3325 15.5834 51.3325C15.0783 51.3325 14.6667 51.7432 14.6667 52.2492C14.6667 52.7551 15.0783 53.1658 15.5834 53.1658ZM15.5834 34.8328C16.0884 34.8328 16.5 34.4221 16.5 33.9161C16.5 33.4101 16.0884 32.9995 15.5834 32.9995C15.0783 32.9995 14.6667 33.4101 14.6667 33.9161C14.6667 34.4221 15.0783 34.8328 15.5834 34.8328Z" fill="#00B2FF"/>
    <path d="M19.25 18.5017V15.5831C19.25 15.3392 19.3463 15.1064 19.5186 14.935L30.5259 3.92785C30.3536 3.56944 30.25 3.17345 30.25 2.74995C30.25 1.23381 31.4838 0 33 0C34.1935 0 35.2018 0.76907 35.5813 1.8333H39.4167C39.9227 1.8333 40.3333 2.24305 40.3333 2.74995V5.12041L43.7388 8.52577C44.0972 8.35344 44.4932 8.24986 44.9167 8.24986C46.4328 8.24986 47.6667 9.48368 47.6667 10.9998C47.6667 12.516 46.4328 13.7498 44.9167 13.7498C43.4005 13.7498 42.1667 12.516 42.1667 10.9998C42.1667 10.5763 42.2703 10.1803 42.4426 9.82192L38.7686 6.14798C38.5963 5.97657 38.5 5.74374 38.5 5.49991V3.66661H35.5813C35.2018 4.73084 34.1935 5.49991 33 5.49991C32.5765 5.49991 32.1805 5.39633 31.8221 5.224L21.0833 15.9626V18.5017C22.1476 18.8812 22.9167 19.8895 22.9167 21.083C22.9167 22.5991 21.6828 23.8329 20.1667 23.8329C18.6505 23.8329 17.4167 22.5991 17.4167 21.083C17.4167 19.8895 18.1858 18.8812 19.25 18.5017ZM44.9167 11.9165C45.4218 11.9165 45.8333 11.5058 45.8333 10.9998C45.8333 10.4938 45.4218 10.0832 44.9167 10.0832C44.4116 10.0832 44 10.4938 44 10.9998C44 11.5058 44.4116 11.9165 44.9167 11.9165ZM33 3.66661C33.5051 3.66661 33.9167 3.25595 33.9167 2.74995C33.9167 2.24396 33.5051 1.8333 33 1.8333C32.4949 1.8333 32.0833 2.24396 32.0833 2.74995C32.0833 3.25595 32.4949 3.66661 33 3.66661ZM20.1667 21.9996C20.6718 21.9996 21.0833 21.589 21.0833 21.083C21.0833 20.577 20.6718 20.1663 20.1667 20.1663C19.6616 20.1663 19.25 20.577 19.25 21.083C19.25 21.589 19.6616 21.9996 20.1667 21.9996Z" fill="#00B2FF"/>
    <path d="M22 25.6662C23.1935 25.6662 24.2018 26.4353 24.5813 27.4995H35.3705L40.6019 22.2682C40.7733 22.0959 41.0071 21.9996 41.25 21.9996H50.9538L53.1667 19.7868V12.296L46.0946 5.224C45.7362 5.39633 45.3402 5.49991 44.9167 5.49991C43.4005 5.49991 42.1667 4.2661 42.1667 2.74995C42.1667 1.23381 43.4005 0 44.9167 0C46.4328 0 47.6667 1.23381 47.6667 2.74995C47.6667 3.17345 47.5631 3.56944 47.3907 3.92785L54.7314 11.2684C54.9037 11.4398 55 11.6726 55 11.9165V20.1663C55 20.4102 54.9037 20.643 54.7314 20.8144L51.9814 23.5644C51.81 23.7367 51.5762 23.8329 51.3333 23.8329H41.6295L36.3981 29.0643C36.2267 29.2366 35.9929 29.3328 35.75 29.3328H24.5813C24.2018 30.3971 23.1935 31.1661 22 31.1661C20.4838 31.1661 19.25 29.9323 19.25 28.4162C19.25 26.9001 20.4838 25.6662 22 25.6662ZM44.9167 1.8333C44.4116 1.8333 44 2.24396 44 2.74995C44 3.25595 44.4116 3.66661 44.9167 3.66661C45.4217 3.66661 45.8333 3.25595 45.8333 2.74995C45.8333 2.24396 45.4217 1.8333 44.9167 1.8333ZM22 29.3328C22.5051 29.3328 22.9167 28.9222 22.9167 28.4162C22.9167 27.9102 22.5051 27.4995 22 27.4995C21.4949 27.4995 21.0833 27.9102 21.0833 28.4162C21.0833 28.9222 21.4949 29.3328 22 29.3328Z" fill="#00B2FF"/>
    <path d="M2.75001 21.9996C3.17351 21.9996 3.56951 22.1032 3.92793 22.2755L7.33334 18.8702V13.5811C6.26909 13.2016 5.50001 12.1933 5.50001 10.9998C5.50001 9.48368 6.73384 8.24986 8.25001 8.24986C9.76618 8.24986 11 9.48368 11 10.9998C11 12.1933 10.2309 13.2016 9.16668 13.5811V19.2497C9.16668 19.4935 9.07043 19.7263 8.89809 19.8978L5.2241 23.5717C5.39643 23.9301 5.50001 24.3261 5.50001 24.7496C5.50001 25.9431 4.73093 26.9514 3.66668 27.3309V28.0367L10.7314 35.1013C10.9038 35.2727 11 35.5056 11 35.7494V36.8347C12.0643 37.2142 12.8333 38.2225 12.8333 39.416C12.8333 40.6095 12.0643 41.6178 11 41.9973V44.1688C12.0643 44.5483 12.8333 45.5567 12.8333 46.7501C12.8333 48.2663 11.5995 49.5001 10.0833 49.5001C8.56718 49.5001 7.33334 48.2663 7.33334 46.7501C7.33334 45.5567 8.10243 44.5483 9.16668 44.1688V41.9973C8.10243 41.6178 7.33334 40.6095 7.33334 39.416C7.33334 38.2225 8.10243 37.2142 9.16668 36.8347V36.1289L2.10193 29.0643C1.92959 28.8929 1.83334 28.66 1.83334 28.4162V27.3309C0.769095 26.9514 1.15633e-05 25.9431 1.15633e-05 24.7496C1.15633e-05 23.2334 1.23384 21.9996 2.75001 21.9996ZM8.25001 11.9165C8.75509 11.9165 9.16668 11.5058 9.16668 10.9998C9.16668 10.4938 8.75509 10.0832 8.25001 10.0832C7.74493 10.0832 7.33334 10.4938 7.33334 10.9998C7.33334 11.5058 7.74493 11.9165 8.25001 11.9165ZM10.0833 47.6659C10.5884 47.6659 11 47.2552 11 46.7492C11 46.2432 10.5884 45.8326 10.0833 45.8326C9.57826 45.8326 9.16668 46.2432 9.16668 46.7492C9.16668 47.2552 9.57826 47.6659 10.0833 47.6659ZM10.0833 40.3327C10.5884 40.3327 11 39.922 11 39.416C11 38.91 10.5884 38.4994 10.0833 38.4994C9.57826 38.4994 9.16668 38.91 9.16668 39.416C9.16668 39.922 9.57826 40.3327 10.0833 40.3327ZM2.75001 25.6662C3.25509 25.6662 3.66668 25.2556 3.66668 24.7496C3.66668 24.2436 3.25509 23.8329 2.75001 23.8329C2.24493 23.8329 1.83334 24.2436 1.83334 24.7496C1.83334 25.2556 2.24493 25.6662 2.75001 25.6662Z" fill="#00B2FF"/>
</g>
<g class="logo__smartdevice">
    <path d="M8.95996 18.3247C8.95996 18.0073 8.93148 17.7184 8.87451 17.458C8.81755 17.1976 8.69548 16.9575 8.5083 16.7378C8.32926 16.5181 8.06478 16.2983 7.71484 16.0786C7.37305 15.8589 6.92546 15.631 6.37207 15.395C5.71289 15.1183 5.07406 14.8254 4.45557 14.5161C3.83708 14.1987 3.27962 13.8325 2.7832 13.4175C2.28678 13.0024 1.89209 12.5142 1.59912 11.9526C1.31429 11.383 1.17188 10.7157 1.17188 9.95068C1.17188 9.20199 1.30615 8.52246 1.57471 7.91211C1.8514 7.30176 2.24202 6.78092 2.74658 6.34961C3.25114 5.91016 3.84115 5.57243 4.5166 5.33643C5.2002 5.10042 5.9611 4.98242 6.79932 4.98242C7.93864 4.98242 8.92334 5.21842 9.75342 5.69043C10.5916 6.16243 11.2386 6.80941 11.6943 7.63135C12.1582 8.45329 12.3901 9.3973 12.3901 10.4634H8.82568C8.82568 9.95882 8.75244 9.5153 8.60596 9.13281C8.46761 8.74219 8.24382 8.43701 7.93457 8.21729C7.62533 7.99756 7.22656 7.8877 6.73828 7.8877C6.28255 7.8877 5.90413 7.98128 5.60303 8.16846C5.31006 8.34749 5.09033 8.5957 4.94385 8.91309C4.8055 9.22233 4.73633 9.57227 4.73633 9.96289C4.73633 10.2559 4.8055 10.5203 4.94385 10.7563C5.09033 10.9842 5.28971 11.1917 5.54199 11.3789C5.79427 11.5579 6.09131 11.7329 6.43311 11.9038C6.78304 12.0747 7.16553 12.2415 7.58057 12.4043C8.38623 12.7217 9.09831 13.0716 9.7168 13.4541C10.3353 13.8285 10.8521 14.2516 11.2671 14.7236C11.6821 15.1875 11.9954 15.7124 12.207 16.2983C12.4186 16.8843 12.5244 17.5516 12.5244 18.3003C12.5244 19.0409 12.3942 19.7163 12.1338 20.3267C11.8815 20.9289 11.5112 21.4497 11.0229 21.8892C10.5347 22.3205 9.94466 22.6541 9.25293 22.8901C8.56934 23.1261 7.80436 23.2441 6.95801 23.2441C6.13607 23.2441 5.35889 23.1302 4.62646 22.9023C3.89404 22.6663 3.24707 22.3123 2.68555 21.8403C2.13216 21.3602 1.69678 20.7539 1.37939 20.0215C1.06201 19.2809 0.90332 18.4061 0.90332 17.397H4.47998C4.47998 17.9341 4.53288 18.3939 4.63867 18.7764C4.74447 19.1507 4.90723 19.4518 5.12695 19.6797C5.34668 19.8994 5.61523 20.0662 5.93262 20.1802C6.25814 20.286 6.62842 20.3389 7.04346 20.3389C7.51546 20.3389 7.88981 20.2493 8.1665 20.0703C8.45133 19.8913 8.65479 19.6512 8.77686 19.3501C8.89893 19.049 8.95996 18.7072 8.95996 18.3247ZM18.2129 12.5264V23H14.7827V9.79199H18.0054L18.2129 12.5264ZM17.7246 15.9443L16.7847 15.9688C16.7684 15.041 16.8498 14.1865 17.0288 13.4053C17.2078 12.624 17.4764 11.9445 17.8345 11.3667C18.2007 10.7889 18.6605 10.3413 19.2139 10.0239C19.7673 9.70654 20.4142 9.54785 21.1548 9.54785C21.6349 9.54785 22.0785 9.63737 22.4854 9.81641C22.8923 9.9873 23.2463 10.2599 23.5474 10.6343C23.8485 11.0005 24.0804 11.4806 24.2432 12.0747C24.4059 12.6606 24.4873 13.3646 24.4873 14.1865V23H21.0693V14.6016C21.0693 14.0156 21.0124 13.568 20.8984 13.2588C20.7845 12.9414 20.6217 12.7217 20.4102 12.5996C20.1986 12.4694 19.9382 12.4043 19.6289 12.4043C19.3034 12.4043 19.0186 12.4938 18.7744 12.6729C18.5303 12.8519 18.3309 13.1042 18.1763 13.4297C18.0298 13.7471 17.9159 14.1214 17.8345 14.5527C17.7612 14.984 17.7246 15.4479 17.7246 15.9443ZM24.1577 15.6025L22.9248 15.7612C22.9085 14.8905 22.9858 14.0807 23.1567 13.332C23.3276 12.5752 23.5921 11.916 23.9502 11.3545C24.3083 10.7848 24.7559 10.3413 25.293 10.0239C25.8382 9.70654 26.4689 9.54785 27.1851 9.54785C27.7222 9.54785 28.2104 9.63737 28.6499 9.81641C29.0894 9.99544 29.4637 10.2843 29.7729 10.6831C30.0903 11.0737 30.3304 11.5905 30.4932 12.2334C30.6641 12.8763 30.7495 13.6576 30.7495 14.5771V23H27.3193V14.5894C27.3193 13.9953 27.2624 13.5396 27.1484 13.2222C27.0345 12.9048 26.8717 12.6891 26.6602 12.5752C26.4486 12.4613 26.1963 12.4043 25.9033 12.4043C25.6104 12.4043 25.354 12.4857 25.1343 12.6484C24.9227 12.8112 24.7437 13.0391 24.5972 13.332C24.4507 13.6169 24.3408 13.9546 24.2676 14.3452C24.1943 14.7277 24.1577 15.1468 24.1577 15.6025ZM39.1479 19.9604V13.8569C39.1479 13.4582 39.0991 13.1408 39.0015 12.9048C38.9119 12.6688 38.7736 12.4979 38.5864 12.3921C38.4074 12.2782 38.1877 12.2212 37.9272 12.2212C37.6343 12.2212 37.3901 12.2822 37.1948 12.4043C36.9995 12.5264 36.853 12.7013 36.7554 12.9292C36.6659 13.1571 36.6211 13.4297 36.6211 13.7471H33.1909C33.1909 13.1774 33.3008 12.6403 33.5205 12.1357C33.7402 11.623 34.0617 11.1755 34.4849 10.793C34.9162 10.4023 35.4289 10.0972 36.0229 9.87744C36.617 9.65771 37.2843 9.54785 38.0249 9.54785C38.9038 9.54785 39.6851 9.6984 40.3687 9.99951C41.0522 10.2925 41.5934 10.7604 41.9922 11.4033C42.391 12.0462 42.5903 12.8804 42.5903 13.9058V19.7896C42.5903 20.5301 42.627 21.1323 42.7002 21.5962C42.7816 22.0601 42.8996 22.4588 43.0542 22.7925V23H39.6118C39.4572 22.6338 39.3392 22.1781 39.2578 21.6328C39.1846 21.0794 39.1479 20.522 39.1479 19.9604ZM39.563 14.9312L39.5752 16.9819H38.3179C37.9924 16.9819 37.7075 17.0348 37.4634 17.1406C37.2274 17.2464 37.028 17.397 36.8652 17.5923C36.7025 17.7795 36.5804 17.9992 36.499 18.2515C36.4258 18.5037 36.3892 18.7723 36.3892 19.0571C36.3892 19.3745 36.4339 19.6431 36.5234 19.8628C36.613 20.0825 36.7472 20.2493 36.9263 20.3633C37.1053 20.4772 37.3169 20.5342 37.561 20.5342C37.9354 20.5342 38.2609 20.4569 38.5376 20.3022C38.8143 20.1476 39.0177 19.9604 39.1479 19.7407C39.2863 19.521 39.3311 19.3175 39.2822 19.1304L40.0635 20.4609C39.9658 20.762 39.8315 21.0754 39.6606 21.4009C39.4979 21.7264 39.2904 22.0275 39.0381 22.3042C38.7858 22.5809 38.4725 22.8088 38.0981 22.9878C37.7319 23.1587 37.2965 23.2441 36.792 23.2441C36.084 23.2441 35.437 23.0814 34.8511 22.7559C34.2651 22.4303 33.8013 21.9746 33.4595 21.3887C33.1258 20.8027 32.959 20.1069 32.959 19.3013C32.959 18.634 33.0648 18.0317 33.2764 17.4946C33.4961 16.9494 33.8216 16.4896 34.2529 16.1152C34.6842 15.7327 35.2295 15.4398 35.8887 15.2363C36.5479 15.0329 37.321 14.9312 38.208 14.9312H39.563ZM48.5352 12.7339V23H45.1172V9.79199H48.3398L48.5352 12.7339ZM51.6479 9.69434L51.5991 13.1001C51.4445 13.0675 51.2573 13.0431 51.0376 13.0269C50.826 13.0106 50.6388 13.0024 50.4761 13.0024C50.0936 13.0024 49.7681 13.0635 49.4995 13.1855C49.231 13.2995 49.0072 13.4744 48.8281 13.7104C48.6572 13.9383 48.527 14.2231 48.4375 14.5649C48.348 14.9067 48.2951 15.2933 48.2788 15.7246L47.6318 15.4805C47.6318 14.6178 47.6969 13.8285 47.8271 13.1123C47.9655 12.388 48.1689 11.7614 48.4375 11.2324C48.7061 10.6953 49.0275 10.2803 49.4019 9.9873C49.7843 9.69434 50.2157 9.54785 50.6958 9.54785C50.8586 9.54785 51.0295 9.56413 51.2085 9.59668C51.3957 9.62109 51.5422 9.65365 51.6479 9.69434ZM59.7656 9.79199V12.3677H53.0273V9.79199H59.7656ZM54.5776 6.53271H57.9834V18.9717C57.9834 19.3379 58.02 19.6187 58.0933 19.814C58.1665 20.0093 58.2764 20.1476 58.4229 20.229C58.5775 20.3022 58.7809 20.3389 59.0332 20.3389C59.2041 20.3389 59.3628 20.3307 59.5093 20.3145C59.6558 20.29 59.7656 20.2656 59.8389 20.2412V22.9146C59.5703 23.0203 59.2855 23.1017 58.9844 23.1587C58.6914 23.2157 58.3415 23.2441 57.9346 23.2441C57.251 23.2441 56.6569 23.1139 56.1523 22.8535C55.6559 22.5931 55.2694 22.1781 54.9927 21.6084C54.716 21.0306 54.5776 20.2738 54.5776 19.3379V6.53271ZM72.2412 23H69.104L69.1284 20.0459H72.2412C73.1038 20.0459 73.7752 19.8913 74.2554 19.582C74.7355 19.2728 75.0732 18.7845 75.2686 18.1172C75.472 17.4499 75.5737 16.575 75.5737 15.4927V12.7217C75.5737 11.8997 75.5208 11.2039 75.415 10.6343C75.3092 10.0565 75.1302 9.59261 74.8779 9.24268C74.6257 8.8846 74.2879 8.62012 73.8647 8.44922C73.4416 8.27832 72.9167 8.19287 72.29 8.19287H69.043V5.22656H72.29C73.3154 5.22656 74.2472 5.39339 75.0854 5.72705C75.9237 6.06071 76.6439 6.54899 77.2461 7.19189C77.8483 7.82666 78.3122 8.61198 78.6377 9.54785C78.9632 10.4837 79.126 11.5498 79.126 12.7461V15.4927C79.126 16.6971 78.9632 17.7632 78.6377 18.6909C78.3122 19.6187 77.8483 20.404 77.2461 21.0469C76.652 21.6816 75.9318 22.1659 75.0854 22.4995C74.2391 22.8332 73.291 23 72.2412 23ZM71.1792 5.22656V23H67.6025V5.22656H71.1792ZM86.8896 23.2441C85.9863 23.2441 85.1847 23.1058 84.4849 22.8291C83.7931 22.5524 83.2072 22.1536 82.7271 21.6328C82.2469 21.1038 81.8807 20.465 81.6284 19.7163C81.3761 18.9676 81.25 18.1131 81.25 17.1528V16.0664C81.25 14.9922 81.3721 14.0522 81.6162 13.2466C81.8604 12.4328 82.2062 11.7492 82.6538 11.1958C83.1014 10.6424 83.6507 10.2314 84.3018 9.96289C84.9609 9.6862 85.7056 9.54785 86.5356 9.54785C87.3657 9.54785 88.0941 9.6862 88.7207 9.96289C89.3555 10.2314 89.8804 10.6383 90.2954 11.1836C90.7104 11.7207 91.0238 12.388 91.2354 13.1855C91.4469 13.9831 91.5527 14.9108 91.5527 15.9688V17.5312H82.7026V15.1265H88.1958V14.8213C88.1958 14.2842 88.1388 13.8366 88.0249 13.4785C87.911 13.1123 87.7319 12.8397 87.4878 12.6606C87.2437 12.4816 86.9181 12.3921 86.5112 12.3921C86.1694 12.3921 85.8805 12.4613 85.6445 12.5996C85.4085 12.738 85.2214 12.9536 85.083 13.2466C84.9447 13.5396 84.8429 13.922 84.7778 14.394C84.7127 14.8579 84.6802 15.4154 84.6802 16.0664V17.1528C84.6802 17.7632 84.7331 18.2759 84.8389 18.6909C84.9447 19.0978 85.0993 19.4315 85.3027 19.6919C85.5143 19.9442 85.7707 20.1273 86.0718 20.2412C86.3729 20.347 86.7228 20.3999 87.1216 20.3999C87.7238 20.3999 88.265 20.2941 88.7451 20.0825C89.2334 19.8628 89.6484 19.5658 89.9902 19.1914L91.3574 21.2666C91.1214 21.5758 90.7959 21.8851 90.3809 22.1943C89.9658 22.5036 89.4694 22.7559 88.8916 22.9512C88.3138 23.1465 87.6465 23.2441 86.8896 23.2441ZM97.2534 20.3633L99.3774 9.79199H102.942L99.3164 23H97.1802L97.2534 20.3633ZM95.9961 9.79199L98.1567 20.3755L98.1934 23H96.0449L92.4194 9.79199H95.9961ZM108.179 9.79199V23H104.749V9.79199H108.179ZM104.59 6.37402C104.59 5.84505 104.757 5.40967 105.09 5.06787C105.432 4.71794 105.888 4.54297 106.458 4.54297C107.035 4.54297 107.491 4.71794 107.825 5.06787C108.158 5.40967 108.325 5.84505 108.325 6.37402C108.325 6.89486 108.154 7.33024 107.812 7.68018C107.479 8.02197 107.031 8.19287 106.47 8.19287C105.892 8.19287 105.432 8.02197 105.09 7.68018C104.757 7.33024 104.59 6.89486 104.59 6.37402ZM115.662 20.3999C115.979 20.3999 116.252 20.3348 116.479 20.2046C116.715 20.0744 116.895 19.8628 117.017 19.5698C117.139 19.2769 117.204 18.8984 117.212 18.4346H120.422C120.422 19.4274 120.211 20.286 119.788 21.0103C119.373 21.7264 118.811 22.2798 118.103 22.6704C117.403 23.0529 116.61 23.2441 115.723 23.2441C114.836 23.2441 114.062 23.1017 113.403 22.8169C112.744 22.5321 112.199 22.117 111.768 21.5718C111.344 21.0265 111.023 20.3633 110.803 19.582C110.592 18.7926 110.486 17.8893 110.486 16.8721V15.9077C110.486 14.9067 110.592 14.0116 110.803 13.2222C111.023 12.4328 111.344 11.7655 111.768 11.2202C112.199 10.675 112.74 10.2599 113.391 9.9751C114.05 9.69027 114.823 9.54785 115.71 9.54785C116.663 9.54785 117.489 9.74723 118.188 10.146C118.888 10.5366 119.434 11.1144 119.824 11.8794C120.223 12.6444 120.422 13.5884 120.422 14.7114H117.212C117.204 14.2069 117.143 13.7878 117.029 13.4541C116.923 13.1123 116.756 12.8519 116.528 12.6729C116.309 12.4857 116.016 12.3921 115.649 12.3921C115.267 12.3921 114.958 12.4735 114.722 12.6362C114.494 12.7909 114.319 13.0187 114.197 13.3198C114.083 13.6128 114.006 13.979 113.965 14.4185C113.924 14.8579 113.904 15.3543 113.904 15.9077V16.8721C113.904 17.4661 113.92 17.9829 113.953 18.4224C113.993 18.8537 114.071 19.2199 114.185 19.521C114.307 19.814 114.482 20.0337 114.709 20.1802C114.945 20.3267 115.263 20.3999 115.662 20.3999ZM127.71 23.2441C126.807 23.2441 126.005 23.1058 125.305 22.8291C124.613 22.5524 124.028 22.1536 123.547 21.6328C123.067 21.1038 122.701 20.465 122.449 19.7163C122.196 18.9676 122.07 18.1131 122.07 17.1528V16.0664C122.07 14.9922 122.192 14.0522 122.437 13.2466C122.681 12.4328 123.027 11.7492 123.474 11.1958C123.922 10.6424 124.471 10.2314 125.122 9.96289C125.781 9.6862 126.526 9.54785 127.356 9.54785C128.186 9.54785 128.914 9.6862 129.541 9.96289C130.176 10.2314 130.701 10.6383 131.116 11.1836C131.531 11.7207 131.844 12.388 132.056 13.1855C132.267 13.9831 132.373 14.9108 132.373 15.9688V17.5312H123.523V15.1265H129.016V14.8213C129.016 14.2842 128.959 13.8366 128.845 13.4785C128.731 13.1123 128.552 12.8397 128.308 12.6606C128.064 12.4816 127.738 12.3921 127.332 12.3921C126.99 12.3921 126.701 12.4613 126.465 12.5996C126.229 12.738 126.042 12.9536 125.903 13.2466C125.765 13.5396 125.663 13.922 125.598 14.394C125.533 14.8579 125.5 15.4154 125.5 16.0664V17.1528C125.5 17.7632 125.553 18.2759 125.659 18.6909C125.765 19.0978 125.92 19.4315 126.123 19.6919C126.335 19.9442 126.591 20.1273 126.892 20.2412C127.193 20.347 127.543 20.3999 127.942 20.3999C128.544 20.3999 129.085 20.2941 129.565 20.0825C130.054 19.8628 130.469 19.5658 130.811 19.1914L132.178 21.2666C131.942 21.5758 131.616 21.8851 131.201 22.1943C130.786 22.5036 130.29 22.7559 129.712 22.9512C129.134 23.1465 128.467 23.2441 127.71 23.2441Z" fill="#F2F5F7"/>
    <path d="M2.56641 40.3086L4.28906 34.6602H5.80078L3.25781 41.9668C3.19922 42.123 3.12305 42.293 3.0293 42.4766C2.93555 42.6602 2.8125 42.834 2.66016 42.998C2.51172 43.166 2.32617 43.3008 2.10352 43.4023C1.88086 43.5078 1.61133 43.5605 1.29492 43.5605C1.16992 43.5605 1.04883 43.5488 0.931641 43.5254C0.818359 43.5059 0.710938 43.4844 0.609375 43.4609L0.603516 42.3828C0.642578 42.3867 0.689453 42.3906 0.744141 42.3945C0.802734 42.3984 0.849609 42.4004 0.884766 42.4004C1.11914 42.4004 1.31445 42.3711 1.4707 42.3125C1.62695 42.2578 1.75391 42.168 1.85156 42.043C1.95312 41.918 2.03906 41.75 2.10938 41.5391L2.56641 40.3086ZM1.59375 34.6602L3.09961 39.4062L3.35156 40.8945L2.37305 41.1465L0.0703125 34.6602H1.59375ZM10.377 39.2891L12.2637 34.6602H13.4883L10.8574 41H9.89648L7.27148 34.6602H8.49609L10.377 39.2891ZM8.13281 34.6602V41H6.7207V34.6602H8.13281ZM12.6211 41V34.6602H14.0391V41H12.6211ZM19.9512 37.3086V38.4219H16.6699V37.3086H19.9512ZM17.0801 34.6602V41H15.668V34.6602H17.0801ZM20.9707 34.6602V41H19.5586V34.6602H20.9707ZM23.5254 36.6758H25.3945C25.9414 36.6758 26.4062 36.7676 26.7891 36.9512C27.1719 37.1348 27.4629 37.3906 27.6621 37.7188C27.8652 38.043 27.9668 38.4141 27.9668 38.832C27.9668 39.1406 27.9102 39.4277 27.7969 39.6934C27.6836 39.9551 27.5156 40.1836 27.293 40.3789C27.0742 40.5742 26.8047 40.7266 26.4844 40.8359C26.168 40.9453 25.8047 41 25.3945 41H22.5879V34.6602H24.0059V39.8809H25.3945C25.6758 39.8809 25.9004 39.832 26.0684 39.7344C26.2363 39.6367 26.3574 39.5098 26.4316 39.3535C26.5098 39.1973 26.5488 39.0312 26.5488 38.8555C26.5488 38.6758 26.5098 38.5059 26.4316 38.3457C26.3574 38.1855 26.2363 38.0547 26.0684 37.9531C25.9004 37.8516 25.6758 37.8008 25.3945 37.8008H23.5254V36.6758ZM30.4629 34.6602V41H29.0508V34.6602H30.4629ZM34.9277 41.1172C34.459 41.1172 34.0352 41.041 33.6562 40.8887C33.2812 40.7324 32.9609 40.5156 32.6953 40.2383C32.4336 39.9609 32.2324 39.6348 32.0918 39.2598C31.9512 38.8848 31.8809 38.4805 31.8809 38.0469V37.8125C31.8809 37.3164 31.9531 36.8672 32.0977 36.4648C32.2422 36.0625 32.4434 35.7188 32.7012 35.4336C32.959 35.1445 33.2637 34.9238 33.6152 34.7715C33.9668 34.6191 34.3477 34.543 34.7578 34.543C35.2109 34.543 35.6074 34.6191 35.9473 34.7715C36.2871 34.9238 36.5684 35.1387 36.791 35.416C37.0176 35.6895 37.1855 36.0156 37.2949 36.3945C37.4082 36.7734 37.4648 37.1914 37.4648 37.6484V38.252H32.5664V37.2383H36.0703V37.127C36.0625 36.873 36.0117 36.6348 35.918 36.4121C35.8281 36.1895 35.6895 36.0098 35.502 35.873C35.3145 35.7363 35.0645 35.668 34.752 35.668C34.5176 35.668 34.3086 35.7188 34.125 35.8203C33.9453 35.918 33.7949 36.0605 33.6738 36.248C33.5527 36.4355 33.459 36.6621 33.3926 36.9277C33.3301 37.1895 33.2988 37.4844 33.2988 37.8125V38.0469C33.2988 38.3242 33.3359 38.582 33.4102 38.8203C33.4883 39.0547 33.6016 39.2598 33.75 39.4355C33.8984 39.6113 34.0781 39.75 34.2891 39.8516C34.5 39.9492 34.7402 39.998 35.0098 39.998C35.3496 39.998 35.6523 39.9297 35.918 39.793C36.1836 39.6562 36.4141 39.4629 36.6094 39.2129L37.3535 39.9336C37.2168 40.1328 37.0391 40.3242 36.8203 40.5078C36.6016 40.6875 36.334 40.834 36.0176 40.9473C35.7051 41.0605 35.3418 41.1172 34.9277 41.1172ZM44.4961 34.6602V41H43.0781V34.6602H44.4961ZM46.5762 34.6602V35.7734H41.0332V34.6602H46.5762ZM49.8809 41.1172C49.4121 41.1172 48.9883 41.041 48.6094 40.8887C48.2344 40.7324 47.9141 40.5156 47.6484 40.2383C47.3867 39.9609 47.1855 39.6348 47.0449 39.2598C46.9043 38.8848 46.834 38.4805 46.834 38.0469V37.8125C46.834 37.3164 46.9062 36.8672 47.0508 36.4648C47.1953 36.0625 47.3965 35.7188 47.6543 35.4336C47.9121 35.1445 48.2168 34.9238 48.5684 34.7715C48.9199 34.6191 49.3008 34.543 49.7109 34.543C50.1641 34.543 50.5605 34.6191 50.9004 34.7715C51.2402 34.9238 51.5215 35.1387 51.7441 35.416C51.9707 35.6895 52.1387 36.0156 52.248 36.3945C52.3613 36.7734 52.418 37.1914 52.418 37.6484V38.252H47.5195V37.2383H51.0234V37.127C51.0156 36.873 50.9648 36.6348 50.8711 36.4121C50.7812 36.1895 50.6426 36.0098 50.4551 35.873C50.2676 35.7363 50.0176 35.668 49.7051 35.668C49.4707 35.668 49.2617 35.7188 49.0781 35.8203C48.8984 35.918 48.748 36.0605 48.627 36.248C48.5059 36.4355 48.4121 36.6621 48.3457 36.9277C48.2832 37.1895 48.252 37.4844 48.252 37.8125V38.0469C48.252 38.3242 48.2891 38.582 48.3633 38.8203C48.4414 39.0547 48.5547 39.2598 48.7031 39.4355C48.8516 39.6113 49.0312 39.75 49.2422 39.8516C49.4531 39.9492 49.6934 39.998 49.9629 39.998C50.3027 39.998 50.6055 39.9297 50.8711 39.793C51.1367 39.6562 51.3672 39.4629 51.5625 39.2129L52.3066 39.9336C52.1699 40.1328 51.9922 40.3242 51.7734 40.5078C51.5547 40.6875 51.2871 40.834 50.9707 40.9473C50.6582 41.0605 50.2949 41.1172 49.8809 41.1172ZM54.5977 34.6602L55.8047 36.7637L57.0352 34.6602H58.5879L56.666 37.7715L58.6641 41H57.1113L55.8223 38.8086L54.5332 41H52.9746L54.9668 37.7715L53.0508 34.6602H54.5977ZM63.8848 37.3086V38.4219H60.6035V37.3086H63.8848ZM61.0137 34.6602V41H59.6016V34.6602H61.0137ZM64.9043 34.6602V41H63.4922V34.6602H64.9043ZM66.1406 37.9004V37.7656C66.1406 37.3086 66.207 36.8848 66.3398 36.4941C66.4727 36.0996 66.6641 35.7578 66.9141 35.4688C67.168 35.1758 67.4766 34.9492 67.8398 34.7891C68.207 34.625 68.6211 34.543 69.082 34.543C69.5469 34.543 69.9609 34.625 70.3242 34.7891C70.6914 34.9492 71.002 35.1758 71.2559 35.4688C71.5098 35.7578 71.7031 36.0996 71.8359 36.4941C71.9688 36.8848 72.0352 37.3086 72.0352 37.7656V37.9004C72.0352 38.3574 71.9688 38.7812 71.8359 39.1719C71.7031 39.5625 71.5098 39.9043 71.2559 40.1973C71.002 40.4863 70.6934 40.7129 70.3301 40.877C69.9668 41.0371 69.5547 41.1172 69.0938 41.1172C68.6289 41.1172 68.2129 41.0371 67.8457 40.877C67.4824 40.7129 67.1738 40.4863 66.9199 40.1973C66.666 39.9043 66.4727 39.5625 66.3398 39.1719C66.207 38.7812 66.1406 38.3574 66.1406 37.9004ZM67.5527 37.7656V37.9004C67.5527 38.1855 67.582 38.4551 67.6406 38.709C67.6992 38.9629 67.791 39.1855 67.916 39.377C68.041 39.5684 68.2012 39.7188 68.3965 39.8281C68.5918 39.9375 68.8242 39.9922 69.0938 39.9922C69.3555 39.9922 69.582 39.9375 69.7734 39.8281C69.9688 39.7188 70.1289 39.5684 70.2539 39.377C70.3789 39.1855 70.4707 38.9629 70.5293 38.709C70.5918 38.4551 70.623 38.1855 70.623 37.9004V37.7656C70.623 37.4844 70.5918 37.2188 70.5293 36.9688C70.4707 36.7148 70.377 36.4902 70.248 36.2949C70.123 36.0996 69.9629 35.9473 69.7676 35.8379C69.5762 35.7246 69.3477 35.668 69.082 35.668C68.8164 35.668 68.5859 35.7246 68.3906 35.8379C68.1992 35.9473 68.041 36.0996 67.916 36.2949C67.791 36.4902 67.6992 36.7148 67.6406 36.9688C67.582 37.2188 67.5527 37.4844 67.5527 37.7656ZM77.3848 34.6602V35.7852H74.291V34.6602H77.3848ZM78.4922 34.6602V41H77.0801V34.6602H78.4922ZM73.9453 34.6602H75.3398L75.1699 37.7949C75.1465 38.2598 75.0996 38.6699 75.0293 39.0254C74.9629 39.377 74.873 39.6797 74.7598 39.9336C74.6465 40.1836 74.5078 40.3867 74.3438 40.543C74.1797 40.6992 73.9883 40.8145 73.7695 40.8887C73.5508 40.9629 73.3047 41 73.0312 41H72.5918L72.5859 39.8398L72.8086 39.8223C72.9531 39.8105 73.0781 39.7734 73.1836 39.7109C73.2891 39.6445 73.3789 39.5508 73.4531 39.4297C73.5312 39.3086 73.5938 39.1523 73.6406 38.9609C73.6914 38.7695 73.7305 38.543 73.7578 38.2812C73.7891 38.0195 73.8125 37.7148 73.8281 37.3672L73.9453 34.6602ZM79.7227 37.9004V37.7656C79.7227 37.3086 79.7891 36.8848 79.9219 36.4941C80.0547 36.0996 80.2461 35.7578 80.4961 35.4688C80.75 35.1758 81.0586 34.9492 81.4219 34.7891C81.7891 34.625 82.2031 34.543 82.6641 34.543C83.1289 34.543 83.543 34.625 83.9062 34.7891C84.2734 34.9492 84.584 35.1758 84.8379 35.4688C85.0918 35.7578 85.2852 36.0996 85.418 36.4941C85.5508 36.8848 85.6172 37.3086 85.6172 37.7656V37.9004C85.6172 38.3574 85.5508 38.7812 85.418 39.1719C85.2852 39.5625 85.0918 39.9043 84.8379 40.1973C84.584 40.4863 84.2754 40.7129 83.9121 40.877C83.5488 41.0371 83.1367 41.1172 82.6758 41.1172C82.2109 41.1172 81.7949 41.0371 81.4277 40.877C81.0645 40.7129 80.7559 40.4863 80.502 40.1973C80.248 39.9043 80.0547 39.5625 79.9219 39.1719C79.7891 38.7812 79.7227 38.3574 79.7227 37.9004ZM81.1348 37.7656V37.9004C81.1348 38.1855 81.1641 38.4551 81.2227 38.709C81.2812 38.9629 81.373 39.1855 81.498 39.377C81.623 39.5684 81.7832 39.7188 81.9785 39.8281C82.1738 39.9375 82.4062 39.9922 82.6758 39.9922C82.9375 39.9922 83.1641 39.9375 83.3555 39.8281C83.5508 39.7188 83.7109 39.5684 83.8359 39.377C83.9609 39.1855 84.0527 38.9629 84.1113 38.709C84.1738 38.4551 84.2051 38.1855 84.2051 37.9004V37.7656C84.2051 37.4844 84.1738 37.2188 84.1113 36.9688C84.0527 36.7148 83.959 36.4902 83.8301 36.2949C83.7051 36.0996 83.5449 35.9473 83.3496 35.8379C83.1582 35.7246 82.9297 35.668 82.6641 35.668C82.3984 35.668 82.168 35.7246 81.9727 35.8379C81.7812 35.9473 81.623 36.0996 81.498 36.2949C81.373 36.4902 81.2812 36.7148 81.2227 36.9688C81.1641 37.2188 81.1348 37.4844 81.1348 37.7656ZM91.0195 34.6602V35.7852H88.2539V41H86.8418V34.6602H91.0195ZM93.2988 38.9375L95.7891 34.6602H97.2012V41H95.7891V36.7168L93.2988 41H91.8867V34.6602H93.2988V38.9375ZM100.154 38.9375L102.645 34.6602H104.057V41H102.645V36.7168L100.154 41H98.7422V34.6602H100.154V38.9375Z" fill="white" fill-opacity="0.7"/>
</g>
</g></symbol></svg>